<?xml version="1.0" encoding="utf-8"?>
<!-- Generator: Adobe Illustrator 15.0.0, SVG Export Plug-In  -->
<!DOCTYPE svg PUBLIC "-//W3C//DTD SVG 1.1//EN" "http://www.w3.org/Graphics/SVG/1.1/DTD/svg11.dtd" [
	<!ENTITY ns_flows "http://ns.adobe.com/Flows/1.0/">
]>
<svg version="1.1"
	 xmlns="http://www.w3.org/2000/svg" xmlns:xlink="http://www.w3.org/1999/xlink" xmlns:a="http://ns.adobe.com/AdobeSVGViewerExtensions/3.0/"
	 x="0px" y="0px" width="738px" height="220px" viewBox="60 55 738 220" enable-background="new 60 55 738 220"
	 xml:space="preserve">
<defs>
</defs>
<g>
	<defs>
		<rect id="SVGID_4_" width="859.48" height="331.159"/>
	</defs>
	<clipPath id="SVGID_5_">
		<use xlink:href="#SVGID_4_"  overflow="visible"/>
	</clipPath>
	<path clip-path="url(#SVGID_5_)" fill="#E84242" d="M212.811,241.674c-5.788,5.788-15.171,5.788-20.959,0l-21.463-21.463
		l-0.002,0.002l-4.861-4.861c-0.013-0.013-0.027-0.024-0.04-0.036l-44.839-44.839c-0.013-0.014-0.024-0.028-0.036-0.04
		c-0.01-0.01-0.018-0.021-0.028-0.031c-2.616-2.688-2.614-6.971,0.005-9.657c0.019-0.02,0.035-0.041,0.055-0.061l0.004-0.004
		l44.839-44.84l0.003-0.002l4.897-4.897l0.003,0.003l21.464-21.464c5.788-5.788,15.172-5.788,20.959,0l0.51,0.509l0.012-0.001
		l-20.36-20.361c-12.477-12.477-32.706-12.477-45.183,0l-73.358,73.358c-12.476,12.477-12.476,32.706,0,45.182l73.358,73.357
		c12.477,12.478,32.706,12.478,45.183,0l20.774-20.773l-0.013-0.004L212.811,241.674z"/>
	<polygon clip-path="url(#SVGID_5_)" fill="#FCD8BA" points="225.02,165.58 256.962,197.522 256.971,197.531 288.922,165.58 
		256.975,133.632 256.964,133.635 	"/>
</g>
<g>
	<defs>
		<path id="SVGID_3_" d="M191.853,89.483l-21.465,21.465l-4.838,4.837c2.709-2.641,7.045-2.624,9.728,0.059l49.736,49.736h0.007
			l-0.001-0.001l31.944-31.944l-44.152-44.152c-2.894-2.894-6.687-4.341-10.479-4.341C198.54,85.142,194.747,86.589,191.853,89.483"
			/>
	</defs>
	<clipPath id="SVGID_6_">
		<use xlink:href="#SVGID_3_"  overflow="visible"/>
	</clipPath>
	
		<linearGradient id="SVGID_7_" gradientUnits="userSpaceOnUse" x1="58.9473" y1="386.1084" x2="59.9473" y2="386.1084" gradientTransform="matrix(54.6324 54.6324 54.6324 -54.6324 -24130.8203 17971.25)">
		<stop  offset="0" style="stop-color:#9F2324"/>
		<stop  offset="0.0122" style="stop-color:#A42929"/>
		<stop  offset="0.0983" style="stop-color:#C54F45"/>
		<stop  offset="0.1777" style="stop-color:#DD6B5A"/>
		<stop  offset="0.2473" style="stop-color:#EB7C67"/>
		<stop  offset="0.2995" style="stop-color:#F0826B"/>
		<stop  offset="1" style="stop-color:#F0826B"/>
	</linearGradient>
	<polygon clip-path="url(#SVGID_6_)" fill="url(#SVGID_7_)" points="211.257,39.435 297.183,125.361 211.257,211.287 
		125.331,125.361 	"/>
</g>
<g>
	<defs>
		<path id="SVGID_2_" d="M225.014,165.58l-49.736,49.735c-2.681,2.682-7.013,2.7-9.722,0.063l4.832,4.833l21.463,21.463
			c5.788,5.788,15.172,5.788,20.959,0l44.153-44.151l-31.942-31.942H225.014z"/>
	</defs>
	<clipPath id="SVGID_8_">
		<use xlink:href="#SVGID_2_"  overflow="visible"/>
	</clipPath>
	
		<linearGradient id="SVGID_9_" gradientUnits="userSpaceOnUse" x1="59.9546" y1="387.2109" x2="60.9546" y2="387.2109" gradientTransform="matrix(54.6316 -54.6316 -54.6316 -54.6316 18062.5566 24663.207)">
		<stop  offset="0" style="stop-color:#9F2324"/>
		<stop  offset="0.0122" style="stop-color:#A42929"/>
		<stop  offset="0.0983" style="stop-color:#C54F45"/>
		<stop  offset="0.1777" style="stop-color:#DD6B5A"/>
		<stop  offset="0.2473" style="stop-color:#EB7C67"/>
		<stop  offset="0.2995" style="stop-color:#F0826B"/>
		<stop  offset="1" style="stop-color:#F0826B"/>
	</linearGradient>
	<polygon clip-path="url(#SVGID_8_)" fill="url(#SVGID_9_)" points="124.615,206.521 211.259,119.876 297.904,206.521 
		211.259,293.166 	"/>
</g>
<g>
	<defs>
		<rect id="SVGID_1_" width="859.48" height="331.159"/>
	</defs>
	<clipPath id="SVGID_10_">
		<use xlink:href="#SVGID_1_"  overflow="visible"/>
	</clipPath>
	<path clip-path="url(#SVGID_10_)" fill="#2F3849" d="M325.976,95.812c0-5.142,4.083-9.223,9.376-9.223
		c5.14,0,9.223,4.081,9.223,9.223v80.444h47.935c4.687,0,8.465,3.781,8.465,8.469c0,4.686-3.778,8.468-8.465,8.468h-57.158
		c-5.293,0-9.376-4.083-9.376-9.376V95.812z M417.798,95.812c0-5.142,4.08-9.223,9.373-9.223c5.141,0,9.225,4.081,9.225,9.223
		v88.913c0,5.142-4.084,9.222-9.225,9.222c-5.293,0-9.373-4.08-9.373-9.222V95.812z M458.046,140.569v-0.302
		c0-30.09,22.53-54.738,54.586-54.738c16.331,0,27.067,4.839,36.292,11.945c1.966,1.513,3.628,4.083,3.628,7.41
		c0,5.14-4.084,9.073-9.222,9.073c-2.573,0-4.385-0.908-5.598-1.816c-7.256-5.897-15.12-9.525-25.251-9.525
		c-20.111,0-34.932,16.632-34.932,37.348v0.303c0,20.715,14.669,37.499,34.932,37.499c11.189,0,18.749-3.627,26.464-10.131
		c1.359-1.209,3.325-2.116,5.595-2.116c4.685,0,8.769,3.932,8.769,8.62c0,2.874-1.359,5.142-3.024,6.651
		c-9.979,8.771-21.321,14.214-38.408,14.214C481.031,195.005,458.046,170.964,458.046,140.569 M573.759,95.812
		c0-5.142,4.081-9.223,9.373-9.223c5.142,0,9.225,4.081,9.225,9.223v88.913c0,5.142-4.083,9.222-9.225,9.222
		c-5.292,0-9.373-4.08-9.373-9.222V95.812z M619.69,183.816V96.719c0-5.293,4.08-9.376,9.373-9.376h61.546
		c4.534,0,8.313,3.78,8.313,8.317c0,4.687-3.779,8.316-8.313,8.316h-52.32v27.52h45.513c4.539,0,8.318,3.78,8.318,8.468
		c0,4.536-3.779,8.165-8.318,8.165h-45.513v28.428h53.074c4.539,0,8.316,3.782,8.316,8.316c0,4.688-3.777,8.318-8.316,8.318h-62.3
		C623.771,193.192,619.69,189.109,619.69,183.816 M719.407,95.812c0-5.142,4.08-9.223,9.373-9.223c5.142,0,9.225,4.081,9.225,9.223
		v80.444h47.935c4.687,0,8.466,3.781,8.466,8.469c0,4.686-3.779,8.468-8.466,8.468H728.78c-5.293,0-9.373-4.083-9.373-9.376V95.812z
		 M326.602,251.159v-29.333c0-1.783,1.376-3.159,3.157-3.159h20.729c1.527,0,2.8,1.273,2.8,2.801c0,1.581-1.273,2.801-2.8,2.801
		h-17.622v9.268h15.327c1.528,0,2.804,1.273,2.804,2.854c0,1.527-1.276,2.751-2.804,2.751h-15.327v9.573h17.876
		c1.528,0,2.801,1.272,2.801,2.801c0,1.577-1.273,2.8-2.801,2.8h-20.983C327.978,254.315,326.602,252.942,326.602,251.159
		 M360.577,221.621c0-1.73,1.377-3.159,3.159-3.159h0.664c1.527,0,2.391,0.765,3.259,1.837l17.824,23.069v-21.9
		c0-1.679,1.373-3.056,3.055-3.056c1.732,0,3.105,1.377,3.105,3.056v29.946c0,1.732-1.323,3.105-3.055,3.105h-0.254
		c-1.478,0-2.396-0.764-3.26-1.882l-18.333-23.733v22.611c0,1.682-1.377,3.055-3.055,3.055c-1.732,0-3.109-1.373-3.109-3.055
		V221.621z M410.592,252.279l-12.477-29.334c-0.205-0.459-0.358-0.918-0.358-1.478c0-1.679,1.376-3.056,3.158-3.056
		c1.628,0,2.7,0.918,3.209,2.242l10.287,25.718l10.438-25.923c0.409-1.068,1.528-2.037,3.005-2.037c1.732,0,3.109,1.324,3.109,3.005
		c0,0.459-0.155,0.969-0.306,1.324l-12.527,29.538c-0.664,1.577-1.836,2.546-3.618,2.546h-0.355
		C412.425,254.825,411.253,253.856,410.592,252.279 M437.223,221.519c0-1.729,1.373-3.106,3.156-3.106
		c1.731,0,3.108,1.377,3.108,3.106v29.946c0,1.732-1.377,3.105-3.108,3.105c-1.783,0-3.156-1.373-3.156-3.105V221.519z
		 M453.071,221.826c0-1.783,1.377-3.159,3.158-3.159h12.733c4.481,0,7.995,1.323,10.287,3.564c1.882,1.936,2.951,4.586,2.951,7.691
		v0.101c0,5.704-3.311,9.168-8.098,10.645l6.823,8.606c0.614,0.763,1.02,1.427,1.02,2.394c0,1.733-1.475,2.902-3.006,2.902
		c-1.424,0-2.342-0.661-3.055-1.628l-8.656-11.051h-7.895v9.573c0,1.732-1.373,3.105-3.105,3.105c-1.781,0-3.158-1.373-3.158-3.105
		V221.826z M468.504,236.341c4.481,0,7.332-2.346,7.332-5.959v-0.104c0-3.819-2.75-5.906-7.383-5.906h-9.118v11.97H468.504z
		 M487.884,236.596v-0.104c0-10.033,7.743-18.434,18.693-18.434c10.945,0,18.588,8.301,18.588,18.333v0.101
		c0,10.033-7.741,18.438-18.693,18.438C495.521,254.929,487.884,246.627,487.884,236.596 M518.592,236.596v-0.104
		c0-6.924-5.042-12.679-12.12-12.679s-12.018,5.651-12.018,12.578v0.101c0,6.927,5.041,12.631,12.123,12.631
		C513.655,249.122,518.592,243.52,518.592,236.596 M532.778,221.621c0-1.73,1.377-3.159,3.158-3.159h0.663
		c1.528,0,2.393,0.765,3.26,1.837l17.824,23.069v-21.9c0-1.679,1.373-3.056,3.056-3.056c1.73,0,3.104,1.377,3.104,3.056v29.946
		c0,1.732-1.323,3.105-3.055,3.105h-0.254c-1.479,0-2.396-0.764-3.26-1.882l-18.334-23.733v22.611c0,1.682-1.377,3.055-3.055,3.055
		c-1.731,0-3.108-1.373-3.108-3.055V221.621z M573.334,221.621c0-1.73,1.377-3.159,3.159-3.159h0.663
		c1.526,0,2.392,0.765,3.26,1.837l17.823,23.069v-21.9c0-1.679,1.374-3.056,3.056-3.056c1.73,0,3.105,1.377,3.105,3.056v29.946
		c0,1.732-1.323,3.105-3.057,3.105h-0.254c-1.477,0-2.395-0.764-3.259-1.882l-18.333-23.733v22.611c0,1.682-1.377,3.055-3.057,3.055
		c-1.73,0-3.107-1.373-3.107-3.055V221.621z M613.893,251.159v-29.333c0-1.783,1.376-3.159,3.158-3.159h20.729
		c1.526,0,2.801,1.273,2.801,2.801c0,1.581-1.274,2.801-2.801,2.801h-17.623v9.268h15.327c1.531,0,2.805,1.273,2.805,2.854
		c0,1.527-1.273,2.751-2.805,2.751h-15.327v9.573h17.878c1.526,0,2.8,1.272,2.8,2.801c0,1.577-1.273,2.8-2.8,2.8h-20.984
		C615.269,254.315,613.893,252.942,613.893,251.159 M647.866,221.621c0-1.73,1.377-3.159,3.159-3.159h0.662
		c1.373,0,2.291,0.715,2.901,1.683l10.796,16.906l10.847-16.956c0.663-1.072,1.581-1.633,2.854-1.633h0.66
		c1.785,0,3.159,1.429,3.159,3.159v29.844c0,1.732-1.374,3.105-3.159,3.105c-1.68,0-3.106-1.424-3.106-3.105v-21.389l-8.709,13.087
		c-0.66,1.02-1.477,1.628-2.646,1.628c-1.122,0-1.938-0.608-2.601-1.628l-8.654-12.985v21.338c0,1.73-1.377,3.055-3.109,3.055
		c-1.728,0-3.055-1.324-3.055-3.055V221.621z M692.422,251.159v-29.333c0-1.783,1.376-3.159,3.158-3.159h20.728
		c1.528,0,2.802,1.273,2.802,2.801c0,1.581-1.273,2.801-2.802,2.801h-17.623v9.268h15.328c1.529,0,2.804,1.273,2.804,2.854
		c0,1.527-1.274,2.751-2.804,2.751h-15.328v9.573h17.878c1.527,0,2.801,1.272,2.801,2.801c0,1.577-1.273,2.8-2.801,2.8H695.58
		C693.798,254.315,692.422,252.942,692.422,251.159 M726.397,221.621c0-1.73,1.376-3.159,3.158-3.159h0.663
		c1.529,0,2.394,0.765,3.26,1.837l17.824,23.069v-21.9c0-1.679,1.373-3.056,3.055-3.056c1.732,0,3.106,1.377,3.106,3.056v29.946
		c0,1.732-1.324,3.105-3.055,3.105h-0.255c-1.479,0-2.396-0.764-3.261-1.882l-18.333-23.733v22.611c0,1.682-1.377,3.055-3.054,3.055
		c-1.733,0-3.109-1.373-3.109-3.055V221.621z M774.986,224.473h-8.655c-1.632,0-2.905-1.323-2.905-2.901
		c0-1.581,1.273-2.904,2.905-2.904h23.678c1.579,0,2.855,1.323,2.855,2.904c0,1.578-1.276,2.901-2.855,2.901H781.3v26.992
		c0,1.732-1.423,3.105-3.155,3.105c-1.731,0-3.158-1.373-3.158-3.105V224.473z"/>
</g>
</svg>
